# xmcd
#
# Track frame offsets:
#	150
#	15712
#	26187
#	37125
#	46012
#	56337
#	67275
#	79362
#	86962
#	95225
#	109087
#	122237
#	131250
#	140625
#	150575
#	165987
#	179875
#	207175
#	217775
#	226437
#
# Disc length: 3158 seconds
#
# Revision: 0
# Processed by: cddbd v1.4b41PL3 Copyright (c) Steve Scherf et al.
# Submitted via: audiograbber 1.80
#
DISCID=240c5414
DTITLE=Fats Domino - Blueberry Hill, 20 Golden Greats
DYEAR=1900
DGENRE=
TTITLE0=Let The Four Winds Blow
TTITLE1=I'm Walking
TTITLE2=Blue Monday
TTITLE3=I'm Ready
TTITLE4=Ain't That A Shame
TTITLE5=Kansas City
TTITLE6=Why Don't You Do Right
TTITLE7=Whole Lot Of Lovin'
TTITLE8=I Want To Walk You Home
TTITLE9=When The Saints Go Marching In
TTITLE10=Jambalaya
TTITLE11=Walking To New Orleans
TTITLE12=Yes It's Me And I'm In Love Again
TTITLE13=My Blue Heaven
TTITLE14=So Long
TTITLE15=Heartbreak Hill
TTITLE16=Please don't Leave Me
TTITLE17=I'm Gonna Be A Wheel Someday
TTITLE18=Ballin' The Jack
TTITLE19=Blueberry Hill
EXTD=
EXTT0=
EXTT1=
EXTT2=
EXTT3=
EXTT4=
EXTT5=
EXTT6=
EXTT7=
EXTT8=
EXTT9=
EXTT10=
EXTT11=
EXTT12=
EXTT13=
EXTT14=
EXTT15=
EXTT16=
EXTT17=
EXTT18=
EXTT19=
PLAYORDER=
